<?xml version="1.0" standalone="no"?>
<!DOCTYPE svg PUBLIC "-//W3C//DTD SVG 20010904//EN"
 "http://www.w3.org/TR/2001/REC-SVG-20010904/DTD/svg10.dtd">
<svg version="1.0" xmlns="http://www.w3.org/2000/svg"
 width="214.000000pt" height="214.000000pt" viewBox="0 0 214.000000 214.000000"
 preserveAspectRatio="xMidYMid meet">
<metadata>
Created by potrace 1.16, written by Peter Selinger 2001-2019
</metadata>
<g transform="translate(0.000000,214.000000) scale(0.100000,-0.100000)"
fill="#000000" stroke="none">
<path d="M135 1723 c2 -7 0 -13 -5 -13 -6 0 -10 5 -10 10 0 6 -5 10 -10 10 -7
0 -9 -81 -8 -237 l3 -238 965 0 965 0 3 238 c2 164 -1 237 -8 237 -6 0 -9 -4
-5 -9 3 -5 1 -12 -4 -16 -5 -3 -14 1 -18 10 -8 13 -122 15 -941 17 -743 2
-931 0 -927 -9z m228 -73 c16 -12 26 -33 29 -55 4 -33 3 -35 -27 -35 -25 0
-33 6 -42 30 -13 35 -47 41 -63 11 -5 -11 -10 -60 -10 -110 0 -77 3 -94 20
-111 25 -25 49 -16 57 21 5 25 10 29 39 29 39 0 42 -11 20 -64 -18 -44 -67
-62 -124 -47 -66 18 -77 39 -80 155 -4 115 11 170 50 186 41 16 103 11 131
-10z m256 -12 c17 -54 81 -298 81 -308 0 -6 -15 -10 -34 -10 -31 0 -35 3 -43
38 -8 36 -10 37 -59 40 l-51 3 -12 -41 c-11 -37 -15 -40 -46 -40 -23 0 -33 4
-30 13 2 6 20 71 40 142 58 212 50 195 100 195 40 0 44 -2 54 -32z m191 -103
c0 -122 2 -137 20 -155 24 -24 30 -24 54 -7 15 11 18 32 20 153 l2 139 35 0
34 0 -3 -144 c-2 -86 -8 -151 -15 -162 -27 -44 -124 -56 -175 -23 -35 23 -42
54 -42 200 l0 134 35 0 35 0 0 -135z m430 105 c0 -28 -2 -30 -40 -30 l-40 0 0
-145 0 -145 -35 0 -35 0 0 145 0 145 -40 0 c-38 0 -40 2 -40 30 l0 30 115 0
115 0 0 -30z m110 -145 l0 -175 -35 0 -35 0 0 175 0 175 35 0 35 0 0 -175z
m257 151 c27 -24 28 -27 31 -145 l4 -121 -30 -30 c-29 -29 -44 -34 -105 -33
-36 1 -75 28 -87 59 -15 40 -12 200 5 239 16 41 42 53 107 54 36 1 54 -5 75
-23z m241 -101 l47 -120 3 123 3 122 29 0 30 0 0 -176 0 -175 -46 3 -47 3 -46
125 -46 125 -3 -127 -3 -128 -29 0 -30 0 0 176 0 175 46 -3 46 -3 46 -120z"/>
<path d="M541 1525 c-8 -37 -11 -68 -8 -71 3 -3 18 -4 34 -2 l29 3 -14 68 c-8
37 -18 67 -22 67 -3 0 -12 -29 -19 -65z"/>
<path d="M1490 1601 c-5 -11 -10 -60 -10 -110 0 -78 3 -94 20 -111 25 -25 32
-25 54 -1 14 16 18 38 17 110 0 50 -5 100 -11 111 -14 26 -56 26 -70 1z"/>
<path d="M341 988 c-13 -51 -26 -99 -29 -105 -2 -8 5 -13 21 -13 19 0 26 6 29
23 2 16 11 23 30 25 22 3 29 -2 34 -22 4 -19 13 -26 31 -26 16 0 23 5 21 13
-3 6 -15 54 -28 105 -24 91 -24 92 -55 92 -30 0 -31 -1 -54 -92z m68 -25 c1
-7 -6 -13 -14 -13 -16 0 -18 12 -8 50 l7 25 7 -25 c4 -14 7 -31 8 -37z"/>
<path d="M493 978 c2 -99 3 -103 25 -106 20 -3 22 1 22 43 0 39 3 46 16 41 9
-3 18 -6 20 -6 2 0 4 -18 4 -40 0 -36 3 -40 25 -40 23 0 24 3 20 41 -2 23 -8
46 -13 51 -6 6 -4 20 6 38 15 25 15 30 -1 54 -15 23 -24 26 -71 26 l-54 0 1
-102z m82 42 c0 -16 -6 -26 -17 -28 -14 -3 -18 3 -18 28 0 25 4 31 18 28 11
-2 17 -12 17 -28z"/>
<path d="M650 975 l0 -105 60 0 c53 0 60 2 60 20 0 16 -7 20 -35 20 -31 0 -35
3 -35 25 0 21 5 25 30 25 23 0 30 4 30 20 0 16 -7 20 -30 20 -25 0 -30 4 -30
25 0 22 4 25 35 25 24 0 35 5 35 15 0 12 -13 15 -60 15 l-60 0 0 -105z"/>
<path d="M807 981 c-15 -55 -27 -103 -27 -106 0 -4 10 -5 23 -3 14 2 23 11 25
26 5 33 57 31 66 -3 5 -18 13 -25 31 -25 14 0 25 1 25 3 -1 1 -13 47 -28 102
-27 97 -28 100 -58 103 l-30 3 -27 -100z m68 -29 c-2 -2 -10 -2 -17 0 -12 2
-13 10 -5 38 l10 35 8 -35 c4 -19 6 -36 4 -38z"/>
<path d="M1030 991 c0 -102 10 -121 66 -121 59 0 74 26 74 125 0 84 0 85 -25
85 -25 0 -25 -1 -25 -85 0 -69 -3 -87 -16 -92 -25 -9 -34 16 -34 100 0 70 -2
77 -20 77 -19 0 -20 -7 -20 -89z"/>
<path d="M1200 976 c0 -99 1 -106 20 -106 18 0 20 7 21 73 l0 72 27 -72 c24
-67 29 -73 54 -73 l28 0 0 105 c0 98 -1 105 -20 105 -18 0 -20 -7 -21 -62 l0
-63 -24 60 c-20 54 -26 60 -54 63 l-31 3 0 -105z"/>
<path d="M1390 975 l0 -105 48 0 c35 0 54 5 66 19 33 36 33 143 0 176 -10 9
-34 15 -65 15 l-49 0 0 -105z m79 61 c7 -8 11 -37 9 -68 -3 -46 -6 -53 -25
-56 -22 -3 -23 0 -23 67 0 54 3 71 14 71 7 0 19 -6 25 -14z"/>
<path d="M1560 975 l0 -105 55 0 c48 0 55 2 55 20 0 16 -7 20 -35 20 -30 0
-35 3 -35 24 0 21 6 25 32 28 22 2 34 9 36 21 3 14 -4 17 -32 17 -32 0 -36 3
-36 25 0 22 4 25 35 25 24 0 35 5 35 15 0 12 -13 15 -55 15 l-55 0 0 -105z"/>
<path d="M1700 975 c0 -98 1 -105 20 -105 17 0 20 7 20 46 0 38 3 45 18 42 12
-2 18 -15 20 -46 3 -37 6 -42 28 -42 21 0 24 4 24 39 0 22 -6 44 -15 51 -13
11 -13 15 0 33 34 49 4 87 -68 87 l-47 0 0 -105z m75 44 c0 -15 -7 -25 -17
-27 -13 -3 -18 3 -18 21 0 13 3 27 7 31 13 12 28 -1 28 -25z"/>
<path d="M1702 779 c-28 -11 -42 -47 -42 -107 0 -84 34 -116 105 -98 40 10 58
97 34 165 -6 17 -12 31 -13 31 0 0 -15 4 -31 9 -17 4 -40 4 -53 0z m52 -45 c9
-24 7 -107 -3 -123 -5 -8 -16 -11 -25 -8 -12 5 -16 21 -16 70 0 35 3 67 7 70
11 12 31 7 37 -9z"/>
<path d="M166 758 c-21 -30 -21 -136 0 -166 11 -16 25 -22 53 -22 43 0 61 14
61 47 0 30 -35 32 -43 2 -3 -12 -12 -19 -19 -17 -17 6 -18 140 -2 145 6 2 14
-5 17 -17 3 -12 13 -20 26 -20 23 0 27 20 11 51 -16 28 -84 27 -104 -3z"/>
<path d="M331 771 c-32 -20 -32 -171 0 -192 8 -5 32 -8 54 -7 31 2 43 9 53 28
16 31 11 142 -7 164 -14 17 -77 22 -100 7z m67 -94 c2 -55 0 -68 -14 -74 -23
-8 -34 14 -34 69 0 58 8 80 29 76 12 -3 17 -18 19 -71z"/>
<path d="M480 676 c0 -99 1 -106 20 -106 17 0 19 8 22 68 l3 67 23 -67 c22
-63 26 -68 53 -68 l29 0 0 105 c0 98 -1 105 -20 105 -18 0 -20 -7 -21 -62 l0
-63 -24 60 c-20 54 -26 60 -54 63 l-31 3 0 -105z"/>
<path d="M676 758 c-24 -34 -20 -48 30 -94 44 -40 51 -64 18 -64 -8 0 -14 9
-14 20 0 15 -7 20 -25 20 -28 0 -34 -24 -12 -54 10 -13 24 -17 57 -14 38 2 47
7 58 31 12 24 11 31 -2 52 -9 13 -29 32 -46 41 -16 10 -30 24 -30 31 0 21 22
27 35 10 16 -23 45 -22 45 1 0 28 -21 42 -61 42 -28 0 -42 -6 -53 -22z"/>
<path d="M805 770 c-9 -15 4 -30 26 -30 17 0 19 -8 19 -85 0 -84 0 -85 25 -85
25 0 25 1 25 85 0 84 0 85 25 85 18 0 25 5 25 20 0 18 -7 20 -69 20 -39 0 -73
-4 -76 -10z"/>
<path d="M960 675 l0 -105 25 0 c23 0 25 4 25 45 0 35 3 43 15 39 8 -4 15 -17
15 -29 0 -36 11 -55 31 -55 16 0 19 8 19 45 0 31 -5 47 -15 51 -13 5 -13 8 0
21 8 8 15 25 15 38 0 38 -26 55 -81 55 l-49 0 0 -105z m78 42 c2 -19 -1 -27
-12 -27 -11 0 -16 10 -16 31 0 38 24 35 28 -4z"/>
<path d="M1120 691 c0 -104 10 -121 70 -121 57 0 70 24 70 127 0 82 0 83 -25
83 -25 0 -25 -1 -25 -85 0 -69 -3 -87 -16 -92 -25 -9 -34 16 -34 100 0 70 -2
77 -20 77 -19 0 -20 -7 -20 -89z"/>
<path d="M1307 762 c-13 -14 -17 -37 -17 -89 0 -82 15 -103 73 -103 37 0 57
19 57 54 0 24 -37 19 -43 -5 -3 -12 -12 -19 -19 -17 -17 6 -18 140 -1 145 6 2
14 -5 18 -16 7 -24 45 -29 45 -5 0 8 -5 24 -10 35 -14 26 -80 26 -103 1z"/>
<path d="M1430 760 c0 -15 7 -20 25 -20 25 0 25 -1 25 -85 0 -78 2 -85 20 -85
18 0 20 7 20 85 0 84 0 85 25 85 18 0 25 5 25 20 0 18 -7 20 -70 20 -63 0 -70
-2 -70 -20z"/>
<path d="M1590 675 c0 -98 1 -105 20 -105 19 0 20 7 20 105 0 98 -1 105 -20
105 -19 0 -20 -7 -20 -105z"/>
<path d="M1837 773 c-2 -5 -3 -51 -3 -103 1 -91 2 -95 24 -98 21 -3 22 0 23
65 l1 68 25 -67 c24 -62 28 -68 54 -68 l29 0 0 105 c0 98 -1 105 -20 105 -18
0 -20 -7 -21 -67 l0 -68 -26 68 c-23 61 -28 67 -54 67 -15 0 -30 -3 -32 -7z"/>
<path d="M130 431 c0 -5 5 -13 10 -16 6 -3 10 -2 10 4 0 5 -4 13 -10 16 -5 3
-10 2 -10 -4z"/>
<path d="M1607 413 c-4 -3 1 -12 11 -20 16 -12 16 -13 -2 -6 -13 4 -17 3 -12
-5 4 -7 27 -12 52 -12 40 0 44 2 44 25 0 26 -15 34 -23 13 -4 -10 -6 -10 -6 0
-1 12 -53 17 -64 5z"/>
<path d="M1710 409 c0 -5 25 -9 55 -9 30 0 55 4 55 8 0 5 -25 8 -55 9 -30 0
-55 -4 -55 -8z"/>
<path d="M1710 378 c0 -5 32 -8 72 -8 39 0 68 3 64 7 -10 10 -136 10 -136 1z"/>
</g>
</svg>
